<?xml version="1.0" encoding="UTF-8" standalone="no"?>
<!DOCTYPE svg PUBLIC "-//W3C//DTD SVG 1.1//EN"
 "http://www.w3.org/Graphics/SVG/1.1/DTD/svg11.dtd">
<!-- Generated by graphviz version 2.44.0 (20200408.0750)
 -->
<!-- Title: update Pages: 1 -->
<svg width="108pt" height="144pt"
 viewBox="0.00 0.00 108.00 144.00" xmlns="http://www.w3.org/2000/svg" xmlns:xlink="http://www.w3.org/1999/xlink">
<g id="graph0" class="graph" transform="scale(0.77 0.77) rotate(0) translate(4 184)">
<title>update</title>
<polygon fill="white" stroke="transparent" points="-4,4 -4,-184 137,-184 137,4 -4,4"/>
<!-- 4 -->
<g id="node1" class="node">
<title>4</title>
<polygon fill="none" stroke="black" points="95,-180 41,-180 41,-144 95,-144 95,-180"/>
<text text-anchor="middle" x="68" y="-158.3" font-family="Times,serif" font-size="14.00">4</text>
</g>
<!-- master -->
<g id="node2" class="node">
<title>master</title>
<polygon fill="none" stroke="black" points="59,-108 5,-108 5,-72 59,-72 59,-108"/>
<text text-anchor="middle" x="32" y="-86.3" font-family="Times,serif" font-size="14.00">master</text>
</g>
<!-- 4&#45;&gt;master -->
<g id="edge1" class="edge">
<title>4&#45;&gt;master</title>
<path fill="none" stroke="black" d="M59.1,-143.7C55,-135.73 50.05,-126.1 45.51,-117.26"/>
<polygon fill="black" stroke="black" points="48.48,-115.4 40.8,-108.1 42.26,-118.6 48.48,-115.4"/>
</g>
<!-- staging -->
<g id="node4" class="node">
<title>staging</title>
<polygon fill="none" stroke="black" points="133,-108 77,-108 77,-72 133,-72 133,-108"/>
<text text-anchor="middle" x="105" y="-86.3" font-family="Times,serif" font-size="14.00">staging</text>
</g>
<!-- 4&#45;&gt;staging -->
<g id="edge3" class="edge">
<title>4&#45;&gt;staging</title>
<path fill="none" stroke="black" d="M77.15,-143.7C81.4,-135.64 86.56,-125.89 91.27,-116.98"/>
<polygon fill="black" stroke="black" points="94.38,-118.58 95.96,-108.1 88.19,-115.31 94.38,-118.58"/>
</g>
<!-- last sync -->
<g id="node3" class="node">
<title>last sync</title>
<polygon fill="none" stroke="black" points="64,-36 0,-36 0,0 64,0 64,-36"/>
<text text-anchor="middle" x="32" y="-14.3" font-family="Times,serif" font-size="14.00">last sync</text>
</g>
<!-- master&#45;&gt;last sync -->
<g id="edge2" class="edge">
<title>master&#45;&gt;last sync</title>
<path fill="none" stroke="black" d="M32,-71.7C32,-63.98 32,-54.71 32,-46.11"/>
<polygon fill="black" stroke="black" points="35.5,-46.1 32,-36.1 28.5,-46.1 35.5,-46.1"/>
</g>
</g>
</svg>
