<?xml version="1.0" encoding="UTF-8" standalone="no"?>
<!DOCTYPE svg PUBLIC "-//W3C//DTD SVG 1.1//EN"
 "http://www.w3.org/Graphics/SVG/1.1/DTD/svg11.dtd">
<!-- Generated by graphviz version 2.44.0 (20200408.0750)
 -->
<!-- Title: DAG Pages: 1 -->
<svg width="60pt" height="216pt"
 viewBox="0.00 0.00 59.82 216.00" xmlns="http://www.w3.org/2000/svg" xmlns:xlink="http://www.w3.org/1999/xlink">
<g id="graph0" class="graph" transform="scale(0.83 0.83) rotate(0) translate(4 256)">
<title>DAG</title>
<polygon fill="white" stroke="transparent" points="-4,4 -4,-256 68,-256 68,4 -4,4"/>
<!-- 1 -->
<g id="node1" class="node">
<title>1</title>
<polygon fill="none" stroke="black" points="59,-252 5,-252 5,-216 59,-216 59,-252"/>
<text text-anchor="middle" x="32" y="-230.3" font-family="Times,serif" font-size="14.00">1</text>
</g>
<!-- 2 -->
<g id="node2" class="node">
<title>2</title>
<polygon fill="none" stroke="black" points="59,-180 5,-180 5,-144 59,-144 59,-180"/>
<text text-anchor="middle" x="32" y="-158.3" font-family="Times,serif" font-size="14.00">2</text>
</g>
<!-- 1&#45;&gt;2 -->
<g id="edge1" class="edge">
<title>1&#45;&gt;2</title>
<path fill="none" stroke="black" d="M32,-215.7C32,-207.98 32,-198.71 32,-190.11"/>
<polygon fill="black" stroke="black" points="35.5,-190.1 32,-180.1 28.5,-190.1 35.5,-190.1"/>
</g>
<!-- 3 -->
<g id="node3" class="node">
<title>3</title>
<polygon fill="none" stroke="black" points="59,-108 5,-108 5,-72 59,-72 59,-108"/>
<text text-anchor="middle" x="32" y="-86.3" font-family="Times,serif" font-size="14.00">3</text>
</g>
<!-- 2&#45;&gt;3 -->
<g id="edge2" class="edge">
<title>2&#45;&gt;3</title>
<path fill="none" stroke="black" d="M32,-143.7C32,-135.98 32,-126.71 32,-118.11"/>
<polygon fill="black" stroke="black" points="35.5,-118.1 32,-108.1 28.5,-118.1 35.5,-118.1"/>
</g>
<!-- last sync -->
<g id="node4" class="node">
<title>last sync</title>
<polygon fill="none" stroke="black" points="64,-36 0,-36 0,0 64,0 64,-36"/>
<text text-anchor="middle" x="32" y="-14.3" font-family="Times,serif" font-size="14.00">last sync</text>
</g>
<!-- 3&#45;&gt;last sync -->
<g id="edge3" class="edge">
<title>3&#45;&gt;last sync</title>
<path fill="none" stroke="black" d="M32,-71.7C32,-63.98 32,-54.71 32,-46.11"/>
<polygon fill="black" stroke="black" points="35.5,-46.1 32,-36.1 28.5,-46.1 35.5,-46.1"/>
</g>
</g>
</svg>
