<?xml version="1.0" encoding="UTF-8" standalone="no"?>
<!DOCTYPE svg PUBLIC "-//W3C//DTD SVG 1.1//EN"
 "http://www.w3.org/Graphics/SVG/1.1/DTD/svg11.dtd">
<!-- Generated by graphviz version 2.44.0 (20200408.0750)
 -->
<!-- Title: update Pages: 1 -->
<svg width="134pt" height="108pt"
 viewBox="0.00 0.00 134.07 108.00" xmlns="http://www.w3.org/2000/svg" xmlns:xlink="http://www.w3.org/1999/xlink">
<g id="graph0" class="graph" transform="scale(0.93 0.93) rotate(0) translate(4 112)">
<title>update</title>
<polygon fill="white" stroke="transparent" points="-4,4 -4,-112 140,-112 140,4 -4,4"/>
<!-- 4 -->
<g id="node1" class="node">
<title>4</title>
<polygon fill="none" stroke="black" points="92,-108 38,-108 38,-72 92,-72 92,-108"/>
<text text-anchor="middle" x="65" y="-86.3" font-family="Times,serif" font-size="14.00">4</text>
</g>
<!-- master -->
<g id="node2" class="node">
<title>master</title>
<polygon fill="none" stroke="black" points="54,-36 0,-36 0,0 54,0 54,-36"/>
<text text-anchor="middle" x="27" y="-14.3" font-family="Times,serif" font-size="14.00">master</text>
</g>
<!-- 4&#45;&gt;master -->
<g id="edge1" class="edge">
<title>4&#45;&gt;master</title>
<path fill="none" stroke="black" d="M55.61,-71.7C51.24,-63.64 45.94,-53.89 41.1,-44.98"/>
<polygon fill="black" stroke="black" points="44.13,-43.22 36.29,-36.1 37.98,-46.56 44.13,-43.22"/>
</g>
<!-- last sync -->
<g id="node3" class="node">
<title>last sync</title>
<polygon fill="none" stroke="black" points="136,-36 72,-36 72,0 136,0 136,-36"/>
<text text-anchor="middle" x="104" y="-14.3" font-family="Times,serif" font-size="14.00">last sync</text>
</g>
<!-- 4&#45;&gt;last sync -->
<g id="edge2" class="edge">
<title>4&#45;&gt;last sync</title>
<path fill="none" stroke="black" d="M74.64,-71.7C79.13,-63.64 84.56,-53.89 89.52,-44.98"/>
<polygon fill="black" stroke="black" points="92.66,-46.54 94.47,-36.1 86.55,-43.14 92.66,-46.54"/>
</g>
</g>
</svg>
